<?xml version="1.0" encoding="UTF-8"?>
<svg id="Layer_1" data-name="Layer 1" xmlns="http://www.w3.org/2000/svg" viewBox="0 0 1920 1080">
  <defs>
    <style>
      .cls-1 {
        fill: #0f1f42;
      }
    </style>
  </defs>
  <g>
    <path class="cls-1" d="M822.69,518.64c-.1-.03-.3.11-.38.22-.6.75-1.4,1.04-2.32,1.09-.07-.93-.07-1.84-.2-2.73-.55-4.07-2.48-7.3-6-9.49-2.49-1.55-5.28-2.14-8.14-2.52-.68-.08-1.35-.18-2-.34-1.49-.37-2.67-1.14-3.2-2.76-.41.64-.47,1.24-.41,1.87.02.23-.02.52-.14.71-1.54,2.5-3.06,5.02-4.68,7.47-.53.79-.33,1.46-.15,2.32,1.96-3.12,3.85-6.15,5.77-9.22,1.06.82,2.31,1.06,3.55,1.31,1.19.25,2.39.44,3.56.75,5.05,1.33,8.41,4.32,9.26,9.67.15.92.14,1.86.21,2.81-.3,0-.47,0-.64,0-2.42.02-4.83.03-7.25.05l-29.2-.19h0c-1.86-.03-3.71-.07-5.57-.1-.55,0-1.18.21-1.65.52-1.56,1.01-1.49,2.81.12,3.75.23.13.47.23.71.31,3.31,1.09,6.62,2.18,9.94,3.25.34.11.52.29.66.63.62,1.45,1.31,2.87,1.94,4.32.81,1.85,1.59,3.69,2.35,5.55l8.63,1.78h-18.39c-2.57.02-5.15.03-7.72.03-.19,0-.43-.17-.57-.34-.71-.84-1.37-1.72-2.09-2.55-.56-.66-1.14-1.32-1.71-1.98h-13.17c-.15,3.37,1.14,6.18,3.75,8.45,1.36,1.17,2.94,1.98,4.56,2.7,1.89.83,3.68,1.8,5.13,3.39-.08-.68-.14-1.29-.24-1.89-.05-.28-.14-.59-.32-.8-.88-1.06-1.8-2.09-2.69-3.13-.74-.87-1.35-1.81-1.52-2.98-.14-.98.05-1.87.88-2.46.78-.55,1.59-.3,2.35.14,1.45.84,2.53,2.07,3.51,3.39.23.32.24.55.02.87-.19.26-.31.59-.43.89-.83,1.98-.66,3.98-.16,5.99.44,1.76.85,3.53.55,5.36-.66,3.97-2.8,6.83-6.52,8.43-.27.12-.32.25-.32.55.01.69,0,1.4-.08,2.08-.33,2.67-1.2,5.17-2.48,7.52-.16.3-.19.52,0,.8.45.67.5,1.36.12,2.1-.26.52-.43,1.08-.66,1.64h5.27c-.07-.14-.11-.25-.17-.35-.75-1.11-1.48-2.23-2.26-3.31-.24-.33-.29-.59-.13-.93,1.27-2.68,2.53-5.37,3.82-8.04.07-.15.3-.26.47-.29.55-.12,1.1-.17,1.64-.28,3.9-.8,6.97-2.95,9.55-5.89.23-.26.46-.51.69-.78,2.72,1.68,4.1,4.15,4.47,7.22.06.5.13.93.73,1.07.26.06.51.23.73.38,2.47,1.67,4.27,3.88,5.03,6.76.28,1.04.67,1.6,1.69,1.76.02,0,.05.04.08.08-.15.85-.29,1.72-.44,2.6h4.68c-.58-1.42-1.2-2.76-2.54-3.57-1.02-.62-1.7-1.49-2.22-2.55-1.19-2.42-2.67-4.64-4.59-6.55-.1-.1-.14-.34-.1-.48.12-.47.29-.92.44-1.38,1.15-3.53,1.31-7.09.28-10.68-.04-.15-.23-.35-.37-.36-1.56-.11-3.02.23-4.26,1.22-.74.59-1.4,1.28-2.09,1.92.35-.77.72-1.56,1.2-2.27.76-1.13,1.85-1.81,3.21-2.04,1.31-.23,2.6-.11,3.88.17,1.72.37,3.23,1.25,4.81,1.97,2.83,1.29,5.78,1.86,8.89,1.33.15-.03.3-.06.46-.1.45-.11.92-.23,1.24.23.34.48.16.99-.03,1.49-.07.2-.14.46-.07.64,1.95,4.91,4.09,9.73,6.56,14.4.33.63.53,1.27.54,1.99,0,1.34.03,1.34,1.19,1.98.07.04.15.1.23.13.47.2.61.56.53,1.06-.08.47-.11.96-.16,1.47h4.74c-.57-1.07-.7-2.37-1.95-2.94-1.62-.74-2.5-2.08-3.04-3.71-.03-.08-.07-.16-.1-.24-1.74-4.92-3.53-9.83-5.21-14.77-.86-2.53-1.23-2.02.89-4.51,1.68-1.96,3.6-3.65,6.05-4.6,1.77-.7,3.6-.98,5.5-.93.02.08.05.14.05.18,0,2.97,0,5.93,0,8.89,0,.73-.3,1.29-.85,1.71-.53.4-1.11.71-1.65,1.08-.13.08-.3.24-.3.36-.02,1.37-.02,2.74-.02,4.19,1.35-1.03,2.42-2.21,3.3-3.56.38-.59.79-1.21.97-1.87.26-1,.34-2.05.48-3.09.34-2.48.64-4.96,1.02-7.44.39-2.53-1.38-3.69-3.09-3.66-4.62.06-9.24.02-13.86.03-.37,0-.56-.11-.7-.45-.28-.71-.62-1.4-.9-2.11-.38-.97-.74-1.96-1.09-2.89,1.72-.21,3.37-.37,5-.64,6.22-1.01,10.77-5.49,11.94-11.74.24-1.29.4-2.6.6-3.94.96-.03,1.86.16,2.55.95.1.11.37.15.51.1.8-.3,1.58-.63,2.36-.96.65-.27,1.28-.56,2.07-.9-1.69-.64-3.23-1.22-4.78-1.78ZM816.18,527.52c-1.46,3.88-4.32,6.25-8.19,7.49-1.91.61-3.87.98-5.88,1.19-.77-2.4-1.53-4.79-2.3-7.19l-.06-.17-2.27-6.91,4.47,3.26c.39-.07.77-.14,1.16-.2,3.71-.64,7.43-1.25,11.14-1.94,1.05-.2,1.89.26,2.85.52-.12,1.38-.44,2.68-.92,3.96Z"/>
    <path class="cls-1" d="M786.58,518.7h7.21c.18-.25.28-.56.26-.93-.03-.51-.09-1.02-.14-1.58h.92c-.06-.21-.1-.38-.15-.55-.49-1.7-.97-3.4-1.48-5.09-.04-.13-.25-.29-.38-.29-1.11-.02-2.23-.06-3.34,0-2.01.12-3.5.94-3.36,3.58.09,1.6.3,3.2.47,4.86Z"/>
  </g>
  <g>
    <g>
      <path class="cls-1" d="M882.91,564.95c-5.48,3.92-11.56,5.99-18.26,6.2-.38.03-.74.03-1.12.03-.44,0-.88-.01-1.31-.03-6.7-.2-12.78-2.27-18.26-6.2l1.01-1.69,2.68-4.52c4.63,3.42,9.65,5.2,15.05,5.3.3.01.61.01.91.01.19,0,.37,0,.56-.01,5.4-.1,10.43-1.88,15.07-5.3l2.67,4.5,1.01,1.7Z"/>
      <path class="cls-1" d="M906.14,517.2c4.68,0,8.56,1.29,11.65,3.88,3.09,2.54,4.63,6.36,4.63,11.45v22.07h-6.13v-4.91c-2.77,4-6.99,6-12.67,6-4.09,0-7.38-1.14-9.88-3.41-2.45-2.27-3.68-5.13-3.68-8.58s1.36-6.21,4.09-8.28c2.72-2.07,6.61-3.1,11.65-3.1s8.4-.18,10.35-.55c-.45-5.77-3.84-8.65-10.15-8.65-3.95,0-7.68,1.09-11.17,3.27l-3-4.84c1.68-1.27,3.8-2.32,6.37-3.13,2.57-.82,5.21-1.23,7.94-1.23ZM904.23,549.76c3.41,0,6.18-1.16,8.31-3.48,2.18-2.45,3.36-5.43,3.54-8.92-1.45.32-3.86.48-7.22.48-4.45,0-7.59.4-9.4,1.19-1.82.8-2.72,2.35-2.72,4.67,0,1.86.69,3.34,2.08,4.43,1.38,1.09,3.19,1.64,5.42,1.64Z"/>
      <path class="cls-1" d="M974.2,517.13c4.4,0,7.95,1.43,10.63,4.29,2.63,2.77,3.95,6.59,3.95,11.45v21.73h-6.54v-20.71c0-3.41-.78-6.04-2.35-7.9-1.57-1.86-3.71-2.79-6.44-2.79-2.86,0-5.2,1-7.02,3-1.82,2-2.72,4.61-2.72,7.83v20.57h-6.47v-20.57c0-3.41-.8-6.06-2.38-7.97-1.59-1.91-3.75-2.86-6.47-2.86-2.86,0-5.21,1.01-7.05,3.03-1.84,2.02-2.76,4.67-2.76,7.94v20.44h-6.54v-36.52h6.4v5.38c1.09-2.04,2.6-3.62,4.53-4.73,1.93-1.11,4.1-1.65,6.51-1.6,2.5,0,4.79.6,6.88,1.81,2.09,1.2,3.61,2.87,4.56,5.01,1.23-2.09,3.03-3.75,5.42-4.97,2.38-1.23,5.01-1.84,7.87-1.84Z"/>
      <path class="cls-1" d="M1032.31,535.66c0,.45-.07,1.57-.2,3.34h-29.09c.59,3.23,1.95,5.77,4.09,7.63,2.13,1.86,5.04,2.79,8.72,2.79,2.18,0,4.43-.37,6.74-1.12,2.32-.75,4.32-1.74,6-2.96l2.79,4.97c-1.91,1.45-4.27,2.67-7.09,3.65-2.82.98-5.68,1.46-8.58,1.46-3.32,0-6.26-.55-8.82-1.63-2.57-1.09-4.6-2.57-6.1-4.43-1.5-1.86-2.63-3.91-3.41-6.13-.77-2.22-1.16-4.56-1.16-7.02,0-5.45,1.7-9.99,5.11-13.62,3.45-3.59,7.9-5.38,13.35-5.38s9.4,1.66,12.67,4.97c3.31,3.32,4.97,7.81,4.97,13.49ZM1003.01,533.34h22.55c-.18-3.13-1.28-5.64-3.3-7.53-2.02-1.88-4.55-2.83-7.6-2.83s-5.5.97-7.63,2.9c-2.14,1.93-3.47,4.42-4.02,7.46Z"/>
      <rect class="cls-1" x="1039.8" y="508.83" width="7.49" height="45.77"/>
      <path class="cls-1" d="M1091.58,535.52c0,1.18-.09,2.38-.27,3.61h-28.68c.55,2.95,1.85,5.29,3.92,7.02,2.07,1.73,4.83,2.59,8.28,2.59,2.09,0,4.28-.36,6.57-1.09,2.29-.73,4.26-1.68,5.89-2.86l3.13,5.52c-4.59,3.41-9.88,5.11-15.87,5.11-6.45,0-11.34-1.88-14.68-5.65-3.34-3.77-5.01-8.31-5.01-13.63s1.73-10.11,5.18-13.69c3.5-3.63,8.02-5.45,13.56-5.45s9.63,1.66,12.94,4.97c3.36,3.36,5.04,7.88,5.04,13.56ZM1073.59,523.46c-2.82,0-5.21.87-7.19,2.62-1.98,1.75-3.24,4.05-3.78,6.92h21.39c-.32-2.86-1.44-5.17-3.37-6.92-1.93-1.75-4.28-2.62-7.05-2.62Z"/>
      <path class="cls-1" d="M1106.43,554.6h-7.49v-36.72h7.36v5.18c1.09-1.91,2.66-3.41,4.7-4.5,2.04-1.09,4.36-1.64,6.95-1.64,4.04,0,7.45,1.32,10.22,3.95,2.82,2.68,4.22,6.47,4.22,11.38v22.35h-7.56v-20.23c0-3.32-.79-5.89-2.38-7.73-1.59-1.84-3.72-2.76-6.4-2.76-2.82,0-5.12.99-6.91,2.96-1.79,1.98-2.69,4.53-2.69,7.66v20.1Z"/>
      <path class="cls-1" d="M1152.48,555.48c-2.91,0-5.61-.66-8.11-1.98-2.5-1.32-4.5-3.22-5.99-5.72l4.84-4.36c1.09,1.77,2.49,3.15,4.19,4.12,1.7.98,3.44,1.47,5.21,1.47s3.22-.44,4.36-1.33c1.14-.89,1.7-1.96,1.7-3.24,0-1.82-1.05-3.22-3.13-4.22-.55-.32-2.02-.93-4.43-1.84-2.45-1.04-4-1.75-4.63-2.11-3.91-2.04-5.86-5.06-5.86-9.06,0-3.04,1.14-5.56,3.41-7.56,2.36-2,5.4-3,9.13-3,5.22,0,9.24,1.88,12.06,5.65l-4.36,4.63c-2.18-2.68-4.86-4.02-8.04-4.02-1.5,0-2.69.39-3.58,1.16-.89.77-1.33,1.73-1.33,2.86,0,1.82,1.02,3.16,3.07,4.02l3.75,1.57c2.41,1,4.13,1.77,5.18,2.32,4.18,2.18,6.27,5.27,6.27,9.27,0,3.23-1.27,5.93-3.82,8.11-2.55,2.18-5.84,3.27-9.88,3.27Z"/>
    </g>
    <path class="cls-1" d="M876.43,518.09v4.76c-3.27-3.76-7.42-5.66-12.47-5.66-.56,0-1.09.02-1.63.06-4.56.34-8.44,2.11-11.66,5.32-3.58,3.54-5.37,7.98-5.37,13.29s1.75,9.79,5.24,13.43c3.46,3.58,7.82,5.38,13.09,5.38.79,0,1.56-.04,2.3-.13,2.32-.26,3.95-.97,5.71-1.73,1.27-.55,2.94-1.35,4.79-2.52.28-.23.55-.47.81-.71,3.73-3.47,5.67-8.45,5.67-13.54v-17.97h-6.48ZM873.3,545.13c-2.37,2.46-5.34,3.68-8.93,3.68s-6.52-1.22-8.93-3.68c-2.37-2.41-3.54-5.47-3.54-9.2s1.18-6.76,3.54-9.13c2.37-2.45,5.34-3.68,8.93-3.68s6.52,1.23,8.93,3.68c2.35,2.37,3.54,5.4,3.54,9.13s-1.19,6.79-3.54,9.2Z"/>
  </g>
</svg>