<?xml version="1.0" encoding="UTF-8"?>
<svg id="Layer_2" data-name="Layer 2" xmlns="http://www.w3.org/2000/svg" viewBox="0 0 487.78 502.02">
  <defs>
    <style>
      .cls-1 {
        fill: #0f1f42;
      }
    </style>
  </defs>
  <g id="Layer_1-2" data-name="Layer 1">
    <g>
      <path class="cls-1" d="M456.13,109.51c-.63-.22-1.98.71-2.54,1.45-3.95,5-9.24,6.9-15.36,7.23-.45-6.19-.49-12.19-1.3-18.08-3.65-26.99-16.4-48.35-39.77-62.88-16.51-10.29-35-14.16-53.94-16.66-4.47-.56-8.95-1.19-13.27-2.27-9.88-2.42-17.67-7.57-21.17-18.3-2.72,4.25-3.09,8.2-2.68,12.41.11,1.53-.11,3.43-.89,4.7-10.21,16.59-20.24,33.25-30.98,49.5-3.5,5.26-2.2,9.65-.97,15.36,12.97-20.69,25.5-40.74,38.21-61.06,7.01,5.4,15.28,7.01,23.52,8.68,7.86,1.64,15.84,2.91,23.6,4.96,33.47,8.83,55.73,28.63,61.35,64.08.97,6.08.93,12.3,1.42,18.64-1.98,0-3.13-.04-4.25,0-16.03.11-32.02.22-48.05.34l-193.38-1.23v.04c-12.3-.26-24.6-.52-36.9-.71-3.65-.04-7.83,1.42-10.96,3.43-10.36,6.71-9.84,18.64.82,24.86,1.49.86,3.09,1.53,4.73,2.05,21.92,7.23,43.87,14.43,65.83,21.54,2.27.75,3.43,1.9,4.4,4.17,4.1,9.62,8.69,19.01,12.86,28.59,5.37,12.23,10.55,24.45,15.58,36.79l57.14,11.82h-121.81c-17.03.11-34.11.19-51.14.22-1.27,0-2.87-1.16-3.76-2.24-4.7-5.55-9.1-11.37-13.83-16.89-3.73-4.36-7.53-8.72-11.29-13.08H.07c-.97,22.33,7.53,40.96,24.86,55.95,9.02,7.75,19.46,13.12,30.23,17.85,12.49,5.48,24.38,11.89,33.99,22.44-.56-4.47-.89-8.54-1.57-12.52-.33-1.86-.93-3.88-2.09-5.29-5.81-7.01-11.89-13.83-17.82-20.72-4.92-5.78-8.95-12-10.06-19.72-.93-6.49.34-12.41,5.85-16.33,5.18-3.65,10.55-2.01,15.58.89,9.58,5.59,16.74,13.68,23.22,22.48,1.53,2.09,1.6,3.65.11,5.78-1.27,1.75-2.05,3.88-2.87,5.89-5.48,13.08-4.4,26.35-1.04,39.66,2.94,11.67,5.63,23.41,3.62,35.49-4.4,26.28-18.53,45.21-43.2,55.84-1.79.78-2.12,1.68-2.09,3.62.07,4.58.04,9.24-.52,13.79-2.16,17.71-7.98,34.22-16.44,49.84-1.08,1.98-1.23,3.43,0,5.29,2.98,4.44,3.32,9.02.82,13.94-1.71,3.43-2.87,7.16-4.36,10.88h34.89c-.45-.93-.71-1.68-1.16-2.31-4.96-7.34-9.8-14.8-14.98-21.95-1.6-2.16-1.94-3.91-.86-6.19,8.42-17.74,16.77-35.56,25.27-53.27.45-.97,1.98-1.71,3.13-1.94,3.62-.78,7.31-1.12,10.88-1.86,25.83-5.33,46.15-19.53,63.26-38.99,1.53-1.71,3.02-3.39,4.58-5.18,18.04,11.15,27.14,27.47,29.6,47.82.41,3.32.86,6.19,4.84,7.12,1.71.37,3.36,1.53,4.85,2.53,16.36,11.03,28.25,25.68,33.29,44.77,1.83,6.86,4.44,10.62,11.22,11.63.15.04.3.3.56.56-.97,5.63-1.94,11.37-2.94,17.22h31.01c-3.84-9.39-7.98-18.3-16.81-23.67-6.75-4.14-11.26-9.88-14.69-16.89-7.86-16.03-17.67-30.75-30.42-43.39-.67-.67-.89-2.24-.63-3.21.82-3.09,1.94-6.11,2.94-9.17,7.6-23.41,8.65-46.97,1.83-70.75-.26-.97-1.53-2.31-2.42-2.39-10.33-.71-20.02,1.53-28.22,8.05-4.92,3.88-9.24,8.46-13.87,12.71,2.35-5.11,4.77-10.36,7.94-15.06,5.03-7.49,12.26-12,21.25-13.53,8.65-1.49,17.22-.71,25.72,1.12,11.41,2.46,21.4,8.27,31.87,13.05,18.75,8.57,38.28,12.3,58.86,8.83,1.01-.19,2.01-.41,3.02-.63,2.98-.71,6.11-1.53,8.2,1.49,2.24,3.17,1.08,6.56-.19,9.88-.48,1.3-.93,3.06-.45,4.25,12.9,32.5,27.06,64.45,43.42,95.39,2.2,4.17,3.54,8.39,3.58,13.16.04,8.87.19,8.87,7.9,13.08.48.3.97.63,1.49.86,3.13,1.34,4.06,3.69,3.54,7.01-.52,3.13-.71,6.37-1.04,9.77h31.39c-3.8-7.12-4.66-15.69-12.9-19.46-10.74-4.92-16.59-13.79-20.13-24.56-.19-.56-.48-1.04-.67-1.6-11.52-32.62-23.37-65.08-34.48-97.85-5.7-16.77-8.16-13.38,5.89-29.89,11.11-13.01,23.82-24.15,40.07-30.49,11.74-4.62,23.86-6.52,36.42-6.15.15.56.3.89.3,1.19,0,19.64-.04,39.25,0,58.89.04,4.81-1.98,8.57-5.63,11.29-3.5,2.65-7.34,4.73-10.96,7.16-.86.56-1.98,1.57-1.98,2.39-.15,9.06-.11,18.12-.11,27.73,8.95-6.82,16.03-14.65,21.84-23.56,2.53-3.88,5.26-8.01,6.41-12.41,1.75-6.64,2.27-13.61,3.21-20.46,2.24-16.4,4.21-32.88,6.75-49.28,2.57-16.74-9.13-24.42-20.46-24.27-30.6.41-61.2.11-91.81.22-2.46,0-3.73-.71-4.62-2.98-1.86-4.7-4.1-9.24-5.96-13.98-2.53-6.45-4.88-12.97-7.19-19.12,11.41-1.42,22.33-2.42,33.1-4.21,41.23-6.71,71.34-36.38,79.1-77.76,1.6-8.54,2.65-17.22,3.99-26.09,6.37-.22,12.3,1.04,16.92,6.26.63.71,2.42,1.01,3.35.67,5.29-1.98,10.47-4.17,15.66-6.37,4.29-1.79,8.5-3.69,13.72-5.96-11.22-4.21-21.4-8.09-31.65-11.78ZM413,168.37c-9.69,25.72-28.59,41.41-54.27,49.61-12.67,4.03-25.61,6.49-38.95,7.86-5.11-15.88-10.14-31.72-15.21-47.64l-.37-1.12-15.02-45.77,29.6,21.62c2.57-.45,5.11-.89,7.68-1.34,24.6-4.25,49.24-8.27,73.77-12.86,6.93-1.3,12.49,1.75,18.86,3.43-.78,9.13-2.91,17.78-6.08,26.2Z"/>
      <path class="cls-1" d="M216.99,109.92h47.77c1.19-1.64,1.83-3.72,1.7-6.18-.18-3.4-.61-6.79-.96-10.49h6.12c-.38-1.42-.67-2.53-.99-3.63-3.24-11.25-6.45-22.52-9.81-33.73-.25-.85-1.65-1.91-2.54-1.93-7.38-.14-14.79-.42-22.15.02-13.3.79-23.17,6.25-22.23,23.71.57,10.62,1.97,21.21,3.08,32.22Z"/>
    </g>
  </g>
</svg>
