<?xml version="1.0" encoding="UTF-8"?>
<svg id="Layer_2" data-name="Layer 2" xmlns="http://www.w3.org/2000/svg" viewBox="0 0 487.78 502.02">
  <defs>
    <style>
      .cls-1 {
        fill: #0f1f42;
      }
    </style>
  </defs>
  <g id="Layer_1-2" data-name="Layer 1">
    <g>
      <path class="cls-1" d="M456.13,109.51c-.63-.22-1.98.71-2.54,1.45-3.95,5-9.24,6.9-15.36,7.23-.45-6.19-.49-12.19-1.3-18.08-3.65-26.99-16.4-48.35-39.77-62.88-16.51-10.29-35-14.16-53.94-16.66-4.47-.56-8.95-1.19-13.27-2.27-9.88-2.42-17.67-7.57-21.17-18.3-2.72,4.25-3.09,8.2-2.68,12.41.11,1.53-.11,3.43-.89,4.7-10.21,16.59-20.24,33.25-30.98,49.5-3.5,5.26-2.2,9.65-.97,15.36,12.97-20.69,25.5-40.74,38.21-61.06,7.01,5.4,15.28,7.01,23.52,8.68,7.86,1.64,15.84,2.91,23.6,4.96,33.47,8.83,55.73,28.63,61.35,64.08.97,6.08.93,12.3,1.42,18.64-1.98,0-3.13-.04-4.25,0-16.03.11-32.02.22-48.05.34l-193.38-1.23v.04c-12.3-.26-24.6-.52-36.9-.71-3.65-.04-7.83,1.42-10.96,3.43-10.36,6.71-9.84,18.64.82,24.86,1.49.86,3.09,1.53,4.73,2.05,21.92,7.23,43.87,14.43,65.83,21.54,2.27.75,3.43,1.9,4.4,4.17,4.1,9.62,8.69,19.01,12.86,28.59,5.37,12.23,10.55,24.45,15.58,36.79l57.14,11.82h-121.81c-17.03.11-34.11.19-51.14.22-1.27,0-2.87-1.16-3.76-2.24-4.7-5.55-9.1-11.37-13.83-16.89-3.73-4.36-7.53-8.72-11.29-13.08H.07c-.97,22.33,7.53,40.96,24.86,55.95,9.02,7.75,19.46,13.12,30.23,17.85,12.49,5.48,24.38,11.89,33.99,22.44-.56-4.47-.89-8.54-1.57-12.52-.33-1.86-.93-3.88-2.09-5.29-5.81-7.01-11.89-13.83-17.82-20.72-4.92-5.78-8.95-12-10.06-19.72-.93-6.49.34-12.41,5.85-16.33,5.18-3.65,10.55-2.01,15.58.89,9.58,5.59,16.74,13.68,23.22,22.48,1.53,2.09,1.6,3.65.11,5.78-1.27,1.75-2.05,3.88-2.87,5.89-5.48,13.08-4.4,26.35-1.04,39.66,2.94,11.67,5.63,23.41,3.62,35.49-4.4,26.28-18.53,45.21-43.2,55.84-1.79.78-2.12,1.68-2.09,3.62.07,4.58.04,9.24-.52,13.79-2.16,17.71-7.98,34.22-16.44,49.84-1.08,1.98-1.23,3.43,0,5.29,2.98,4.44,3.32,9.02.82,13.94-1.71,3.43-2.87,7.16-4.36,10.88h34.89c-.45-.93-.71-1.68-1.16-2.31-4.96-7.34-9.8-14.8-14.98-21.95-1.6-2.16-1.94-3.91-.86-6.19,8.42-17.74,16.77-35.56,25.27-53.27.45-.97,1.98-1.71,3.13-1.94,3.62-.78,7.31-1.12,10.88-1.86,25.83-5.33,46.15-19.53,63.26-38.99,1.53-1.71,3.02-3.39,4.58-5.18,18.04,11.15,27.14,27.47,29.6,47.82.41,3.32.86,6.19,4.84,7.12,1.71.37,3.36,1.53,4.85,2.53,16.36,11.03,28.25,25.68,33.29,44.77,1.83,6.86,4.44,10.62,11.22,11.63.15.04.3.3.56.56-.97,5.63-1.94,11.37-2.94,17.22h31.01c-3.84-9.39-7.98-18.3-16.81-23.67-6.75-4.14-11.26-9.88-14.69-16.89-7.86-16.03-17.67-30.75-30.42-43.39-.67-.67-.89-2.24-.63-3.21.82-3.09,1.94-6.11,2.94-9.17,7.6-23.41,8.65-46.97,1.83-70.75-.26-.97-1.53-2.31-2.42-2.39-10.33-.71-20.02,1.53-28.22,8.05-4.92,3.88-9.24,8.46-13.87,12.71,2.35-5.11,4.77-10.36,7.94-15.06,5.03-7.49,12.26-12,21.25-13.53,8.65-1.49,17.22-.71,25.72,1.12,11.41,2.46,21.4,8.27,31.87,13.05,18.75,8.57,38.28,12.3,58.86,8.83,1.01-.19,2.01-.41,3.02-.63,2.98-.71,6.11-1.53,8.2,1.49,2.24,3.17,1.08,6.56-.19,9.88-.48,1.3-.93,3.06-.45,4.25,12.9,32.5,27.06,64.45,43.42,95.39,2.2,4.17,3.54,8.39,3.58,13.16.04,8.87.19,8.87,7.9,13.08.48.3.97.63,1.49.86,3.13,1.34,4.06,3.69,3.54,7.01-.52,3.13-.71,6.37-1.04,9.77h31.39c-3.8-7.12-4.66-15.69-12.9-19.46-10.74-4.92-16.59-13.79-20.13-24.56-.19-.56-.48-1.04-.67-1.6-11.52-32.62-23.37-65.08-34.48-97.85-5.7-16.77-8.16-13.38,5.89-29.89,11.11-13.01,23.82-24.15,40.07-30.49,11.74-4.62,23.86-6.52,36.42-6.15.15.56.3.89.3,1.19,0,19.64-.04,39.25,0,58.89.04,4.81-1.98,8.57-5.63,11.29-3.5,2.65-7.34,4.73-10.96,7.16-.86.56-1.98,1.57-1.98,2.39-.15,9.06-.11,18.12-.11,27.73,8.95-6.82,16.03-14.65,21.84-23.56,2.53-3.88,5.26-8.01,6.41-12.41,1.75-6.64,2.27-13.61,3.21-20.46,2.24-16.4,4.21-32.88,6.75-49.28,2.57-16.74-9.13-24.42-20.46-24.27-30.6.41-61.2.11-91.81.22-2.46,0-3.73-.71-4.62-2.98-1.86-4.7-4.1-9.24-5.96-13.98-2.53-6.45-4.88-12.97-7.19-19.12,11.41-1.42,22.33-2.42,33.1-4.21,41.23-6.71,71.34-36.38,79.1-77.76,1.6-8.54,2.65-17.22,3.99-26.09,6.37-.22,12.3,1.04,16.92,6.26.63.71,2.42,1.01,3.35.67,5.29-1.98,10.47-4.17,15.66-6.37,4.29-1.79,8.5-3.69,13.72-5.96-11.22-4.21-21.4-8.09-31.65-11.78ZM413,168.37c-9.69,25.72-28.59,41.41-54.27,49.61-12.67,4.03-25.61,6.49-38.95,7.86-5.11-15.88-10.14-31.72-15.21-47.64l-.37-1.12-15.02-45.77,29.6,21.62c2.57-.45,5.11-.89,7.68-1.34,24.6-4.25,49.24-8.27,73.77-12.86,6.93-1.3,12.49,1.75,18.86,3.43-.78,9.13-2.91,17.78-6.08,26.2Z"/>
      <path class="cls-1" d="M216.99,109.92h47.77c1.19-1.64,1.83-3.72,1.7-6.18-.18-3.4-.61-6.79-.96-10.49h6.12c-.38-1.42-.67-2.53-.99-3.63-3.24-11.25-6.45-22.52-9.81-33.73-.25-.85-1.65-1.91-2.54-1.93-7.38-.14-14.79-.42-22.15.02-13.3.79-23.17,6.25-22.23,23.71.57,10.62,1.97,21.21,3.08,32.22Z"/>
    </g>
  </g>
</svg>
<?xml version="1.0" encoding="UTF-8"?>
<svg id="Layer_1" data-name="Layer 1" xmlns="http://www.w3.org/2000/svg" viewBox="0 0 1920 1080">
  <defs>
    <style>
      .cls-1 {
        fill: #206344;
      }
    </style>
  </defs>
  <path class="cls-1" d="M764.59,522.71l-3.5,3.99s1.36,3.14,1.42,3.31c.06.17,1.85.8,1.85.8,0,0,1.56,1.57,1.7,1.66-.1-.02-3.14-1.32-3.14-1.32,0,0-1.21,3.8-1.28,4.09-.07.3.99,4,1.08,4.55.08.54-1.82-4.51-1.82-4.51l.25-2.4-4.57-2.59-4.24-6.17c.16.18,2.56,2.79,2.89,3.39,0-.48.22-2.19.22-2.19l-7.12-6.85-.74-1.75-1.13-1.2-1.07.32-2.27-1.69-2.88-.41,2.1-.5,3.57-1.15-3.85-3-.78-4,1.3,3.39,5.5,4.17,2.04-.88.5-1.93-.34-.97.63.41.26-.88-.84-.88,1.36-.04.2-.42,1.96-1.17-.94-3.15.15-4.2.2,2.03,2.88-.47,1.39-2.35-.52-2.69-1.96-.56-6.11-4.73-4.79-.76.27,2.88-1.31-2.45-.26-2.46,1.24-5.31-1.51-2.45-8.03-1.88-2.89-2.61.88,2.71-5.74-5.42-10.27-2.41,9.38,5.96-6.5-1.53,7.02,5.26-5.79-1.36,4.88,4.18-1.91.34,3.52,1.97-2.61.43,3.18,1.37-2.24,1.52,3.45.23-1.42,2.49,2.2-.43-.34,2.54,2.78-1.12-1.19,3.06,1.23-.54-3.46,7.39-.31,3.07,2.32,1.75.74,3.99-1.2-2.01-3.85.14-8.54-2.42-9.31,5.82-.28,2.29,1.16-1.14,1.41,3.09-1.51.36-5.19,1.69-4.58,3.48,1.45.89-4.43-.17-8.59,2.14-3.64,2.83-4.81,1.37c-2.47-3.2-4.76-6.19-4.82-6.35l-10.82,5.1,1.91.85,7.84-4.16-7.96,5.09,9.39,13.92,10.55-6.62s-.77-.99-1.9-2.45l6.56-.57,10.6-3.08,3.29-1.97,4.72-1.02-.53,2.54,1.85-2.86,1.14-8.85c-.01.61-.26,10.42-.29,10.57-.04.14-5.11,3.72-5.11,3.72l8.75,7.86-10.37-7.31-9.83,4.44-4.99,4.89-1.96,8-3.54,2.7,2.3.23-6.53,3.09-.51,1.84,1.88-.65-2.41,2.26-5.28,5.12-6.56,2.2-7.8,1.83-6.87,6.18-.69,3.47s-1.7.39-1.78.37c-.07-.02,1.18-.93,1.18-.93l.23-1.1-1.81-8.09-.81.35.06-.84-7.33-10.87-.37,6.44,3.53,5.8-3.69-2.7.14,2.33,2.6,2.54-2.47-.84.52,11.26,2.03.48-1.93.99,1.09,3-1.82-1.44-3.45.64-1.68,2.16s.42,4.06.48,4.27c.07.22,1.47-1.93,1.47-1.93l-4.12,13.19,1.29,6.7,3.4-.97s.05-4.22.04-4.34c0-.14,2.85-5.96,2.85-5.96l7.76-7.8-1.17-4.03.88,1.58,3.36-3.45,8.84-5.42,7.47-3.08-1.59-1.27,3.61.85,3.04-.43,2-2,12.76-4.89-4.13,2.4-.53,1.57-4.64,8.6s-.03,5.45-.1,5.59c-.07.14,3.15-.87,3.15-.87l1.9-4.26,2.75-2.18,9.5-2.71,1.79-7.62-.74,6.34,9.2-.88,11.04,1.55,2.21-.53-3.31-1.93,6.15,1.45,6.45.99,5.32-3.05.96-5-4.46-6.38-2.27-5.03s-9.32-7.1-9.57-7.37c-.25-.27,5.38,2.94,5.38,2.94l-.78-2.5-2.57-3.06,12.19-6.03-2.66.16,9.03-4.36,5.65-2.44,1.81-2.55,1.51-.9-1.5,3.25,9.86,7.91,9.8,2.83,2.72-3.34.85-3.63.12-8.08,1.53-2.73-7.18-4.61ZM721.88,567.71l-8.34-2.9-6.34.63-6.32,2.83-5.59.41,3.18-1.21,1.65-2.99.83-15.89.48,10.31,4.95,1.67,15.5,7.13Z"/>
  <g>
    <polygon class="cls-1" points="805.81 493.18 856.57 493.18 856.57 502.51 816.36 502.51 816.36 524.28 854.23 524.28 854.23 533.61 816.36 533.61 816.36 557.6 856.57 557.6 856.57 566.93 805.81 566.93 805.81 493.18"/>
    <path class="cls-1" d="M913.77,566.93h-9.11l-.33-7.44c-3.44,5.22-8.55,8.77-17.66,8.77-13.11,0-22.66-10.66-22.66-28.43s9.89-28.21,23.77-28.21c7.89,0,13.55,3.33,16.55,8v-26.43h9.44v73.75ZM904.77,539.83c0-14.11-7-19.99-15.66-19.99-9.89,0-15.11,7.44-15.11,19.99s5.11,20.22,15.11,20.22c8.33,0,15.66-6.11,15.66-20.22"/>
    <path class="cls-1" d="M964.86,557.27c-3.44,5.22-8.11,8.78-17.22,8.78-13.11,0-22.66-10-22.66-27.32s9.89-27.1,23.77-27.1c7.89,0,13.11,3.33,16.11,8l.22-7.11h9.22v47.54c0,11.33-1.67,15.99-4.78,19.44-4.11,4.66-11,7.33-19.22,7.33-12.66,0-21.1-5.78-22.88-16.66l10-.33c1.33,5,4.33,8.77,13,8.77,5,0,8.89-1.44,11.33-4.11,2-2.22,3.11-4.78,3.11-12.33v-4.89ZM965.31,538.72c0-13.66-6.55-18.88-15.22-18.88-9.89,0-15.11,6.78-15.11,18.88s5.11,19.1,15.11,19.1c8.33,0,15.22-5.44,15.22-19.1"/>
    <path class="cls-1" d="M964.86,557.27c-3.44,5.22-8.11,8.78-17.22,8.78-13.11,0-22.66-10-22.66-27.32s9.89-27.1,23.77-27.1c7.89,0,13.11,3.33,16.11,8l.22-7.11h9.22v47.54c0,11.33-1.67,15.99-4.78,19.44-4.11,4.66-11,7.33-19.22,7.33-12.66,0-21.1-5.78-22.88-16.66l10-.33c1.33,5,4.33,8.77,13,8.77,5,0,8.89-1.44,11.33-4.11,2-2.22,3.11-4.78,3.11-12.33v-4.89ZM965.31,538.72c0-13.66-6.55-18.88-15.22-18.88-9.89,0-15.11,6.78-15.11,18.88s5.11,19.1,15.11,19.1c8.33,0,15.22-5.44,15.22-19.1"/>
    <path class="cls-1" d="M985.52,539.94c0-16.99,11-28.32,26.43-28.32,17.11,0,26.88,13.55,25.55,31.1h-41.98c0,10.66,6.89,17.22,16.11,17.22,8.66,0,13-3.67,15.33-9.55l9.66,1.22c-2.56,9-11.11,16.66-24.77,16.66-17.77,0-26.32-12.44-26.32-28.32M995.63,534.84h31.88c-.22-7.33-5.44-15.22-15.55-15.22-9.44,0-15.88,5.66-16.33,15.22"/>
    <path class="cls-1" d="M1049.61,493.18h25.55c13.44,0,25.21,3.67,25.21,18.66,0,8-4.11,13.77-9.66,16.33,8.89,2.55,12.77,8.66,12.77,17.55,0,15.44-11.44,21.21-25.99,21.21h-27.88v-73.75ZM1056.5,525.62h19.99c10.11,0,16.66-3.11,16.66-13.33,0-9-6.33-12.66-16.44-12.66h-20.21v25.99ZM1056.5,560.49h21.44c12.11,0,18.22-5,18.22-14.66s-6.11-14-18.88-14h-20.77v28.66Z"/>
    <path class="cls-1" d="M1136.58,511.62c12.88,0,25.1,8.66,25.1,28.32s-12.22,28.32-25.1,28.32-25.1-8.66-25.1-28.32,12.22-28.32,25.1-28.32M1136.58,562.6c10.22,0,18.33-7.33,18.33-22.66s-8.11-22.66-18.33-22.66-18.33,7.33-18.33,22.66,8.11,22.66,18.33,22.66"/>
    <path class="cls-1" d="M1194.56,511.62c12.88,0,25.1,8.66,25.1,28.32s-12.22,28.32-25.1,28.32-25.1-8.66-25.1-28.32,12.22-28.32,25.1-28.32M1194.56,562.6c10.22,0,18.33-7.33,18.33-22.66s-8.11-22.66-18.33-22.66-18.33,7.33-18.33,22.66,8.11,22.66,18.33,22.66"/>
    <polygon class="cls-1" points="1237.33 493.18 1237.33 539.17 1262.65 512.51 1270.54 512.51 1249.54 534.61 1272.43 566.93 1264.98 566.93 1245.32 539.06 1237.33 547.5 1237.33 566.93 1230.89 566.93 1230.89 493.18 1237.33 493.18"/>
    <rect class="cls-1" x="1279.98" y="560.52" width="6.41" height="6.41"/>
  </g>
</svg>