<?xml version="1.0" encoding="UTF-8"?>
<svg id="Layer_2" data-name="Layer 2" xmlns="http://www.w3.org/2000/svg" viewBox="0 0 649.61 661.67">
  <defs>
    <style>
      .cls-1 {
        fill: #fff;
      }
    </style>
  </defs>
  <g id="Layer_1-2" data-name="Layer 1">
    <path class="cls-1" d="M615.85,249.55l-16.46,18.76s6.38,14.77,6.7,15.58c.28.82,8.69,3.77,8.69,3.77,0,0,7.34,7.37,7.99,7.79-.48-.11-14.77-6.19-14.77-6.19,0,0-5.68,17.86-6,19.24-.34,1.41,4.67,18.82,5.06,21.38.39,2.53-8.55-21.21-8.55-21.21l1.18-11.28-21.49-12.18-19.92-29.01c.76.84,12.04,13.11,13.59,15.93-.03-2.25,1.01-10.3,1.01-10.3l-33.5-32.21-3.49-8.22-5.32-5.65-5.03,1.52-10.66-7.93-13.56-1.94,9.88-2.36,16.76-5.4-18.09-14.09-3.68-18.82,6.1,15.95,25.88,19.61,9.59-4.14,2.34-9.05-1.61-4.56,2.98,1.94,1.21-4.13-3.94-4.13,6.41-.2.95-2,9.2-5.49-4.42-14.79.71-19.75.96,9.56,13.56-2.22,6.53-11.03-2.45-12.63-9.23-2.64-28.72-22.22-22.53-3.57,1.26,13.56-6.16-11.53-1.21-11.56,5.85-24.95-7.12-11.51-37.75-8.86-13.59-12.29,4.14,12.74-26.98-25.49L389.9,0l44.11,28.04-30.55-7.17,33.03,24.76-27.23-6.42,22.93,19.63-9,1.61,16.54,9.29-12.29,2.02,14.96,6.45-10.55,7.14,16.2,1.1-6.67,11.7,10.32-2-1.58,11.93,13.06-5.29-5.6,14.4,5.77-2.56-16.29,34.77-1.44,14.43,10.89,8.21,3.46,18.76-5.65-9.45-18.12.68-40.14-11.4-43.77,27.34-1.32,10.75,5.46-5.35,6.61,14.52-7.08,1.71-24.39,7.93-21.55,16.34,6.81,4.16-20.85-.82-40.37,10.04-17.13,13.31-22.62,6.45c-11.62-15.02-22.4-29.12-22.68-29.85l-50.89,23.97,8.97,4,36.85-19.58-37.45,23.94,44.14,65.46,49.6-31.14s-3.63-4.67-8.95-11.51l30.86-2.67,49.85-14.46,15.47-9.28,22.17-4.78-2.48,11.96,8.72-13.45,5.38-41.61c-.06,2.87-1.21,49.01-1.38,49.71-.17.68-24.02,17.47-24.02,17.47l41.13,36.97-48.75-34.35-46.22,20.88-23.46,22.98-9.2,37.61-16.63,12.69,10.8,1.06-30.71,14.54-2.39,8.64,8.83-3.07-11.34,10.6-24.84,24.05-30.83,10.35-36.68,8.6-32.3,29.06-3.24,16.31s-8.02,1.83-8.38,1.74c-.34-.08,5.57-4.36,5.57-4.36l1.1-5.15-8.52-38.03-3.83,1.66.28-3.96-34.46-51.12-1.72,30.3,16.6,27.29-17.36-12.69.64,10.97,12.21,11.96-11.62-3.94,2.45,52.95,9.57,2.25-9.06,4.65,5.15,14.09-8.55-6.78-16.21,3.01-7.9,10.15s1.97,19.07,2.28,20.06c.31,1.01,6.92-9.06,6.92-9.06L0,630.16l6.08,31.51,16.01-4.56s.25-19.86.19-20.42c0-.68,13.39-28.02,13.39-28.02l36.49-36.65-5.51-18.96,4.13,7.42,15.81-16.2,41.58-25.49,35.11-14.46-7.45-5.96,16.96,4,14.29-2.03,9.42-9.4,60.01-22.98-19.44,11.28-2.48,7.37-21.83,40.42s-.14,25.63-.48,26.27c-.34.68,14.8-4.11,14.8-4.11l8.94-20.03,12.91-10.24,44.68-12.74,8.41-35.84-3.46,29.82,43.24-4.14,51.93,7.28,10.38-2.47-15.56-9.09,28.92,6.81,30.35,4.67,25.01-14.32,4.53-23.52-20.96-30.02-10.69-23.66s-43.8-33.4-44.98-34.66c-1.18-1.26,25.29,13.84,25.29,13.84l-3.66-11.74-12.1-14.38,57.31-28.36-12.49.76,42.45-20.51,26.56-11.47,8.5-12.01,7.12-4.22-7.03,15.3,46.36,37.19,46.08,13.31,12.77-15.7,4-17.05.56-37.98,7.18-12.82-33.76-21.69ZM415.05,461.12l-39.22-13.64-29.82,2.95-29.7,13.31-26.27,1.94,14.96-5.71,7.77-14.04,3.88-74.72,2.25,48.5,23.27,7.87,72.89,33.53Z"/>
  </g>
</svg>