<?xml version="1.0" encoding="UTF-8"?>
<svg id="Layer_2" data-name="Layer 2" xmlns="http://www.w3.org/2000/svg" viewBox="0 0 1388.49 299.31">
  <g id="Layer_1-2" data-name="Layer 1">
    <g>
      <path d="M278.59,112.89l-7.44,8.49s2.89,6.68,3.03,7.05c.13.37,3.93,1.71,3.93,1.71,0,0,3.32,3.33,3.61,3.52-.22-.05-6.68-2.8-6.68-2.8,0,0-2.57,8.08-2.71,8.7-.15.64,2.11,8.51,2.29,9.67.18,1.15-3.87-9.59-3.87-9.59l.53-5.1-9.72-5.51-9.01-13.12c.34.38,5.45,5.93,6.15,7.2-.01-1.02.46-4.66.46-4.66l-15.16-14.57-1.58-3.72-2.41-2.56-2.28.69-4.82-3.59-6.13-.88,4.47-1.07,7.58-2.44-8.18-6.38-1.67-8.51,2.76,7.22,11.71,8.87,4.34-1.87,1.06-4.1-.73-2.06,1.35.88.55-1.87-1.78-1.87,2.9-.09.43-.9,4.16-2.48-2-6.69.32-8.93.43,4.33,6.13-1,2.95-4.99-1.11-5.71-4.17-1.2-12.99-10.05-10.19-1.62.57,6.13-2.79-5.22-.55-5.23,2.65-11.29-3.22-5.2-17.08-4.01-6.15-5.56,1.87,5.76-12.2-11.53-21.84-5.13,19.95,12.69-13.82-3.24,14.94,11.2-12.32-2.9,10.37,8.88-4.07.73,7.48,4.2-5.56.91,6.77,2.92-4.77,3.23,7.33.5-3.02,5.29,4.67-.9-.71,5.4,5.91-2.39-2.53,6.51,2.61-1.16-7.37,15.73-.65,6.53,4.93,3.71,1.56,8.49-2.56-4.28-8.2.31-18.16-5.16-19.8,12.37-.6,4.86,2.47-2.42,2.99,6.57-3.2.78-11.03,3.59-9.75,7.39,3.08,1.88-9.43-.37-18.26,4.54-7.75,6.02-10.23,2.92c-5.26-6.8-10.13-13.17-10.26-13.5l-23.02,10.84,4.06,1.81,16.67-8.86-16.94,10.83,19.97,29.61,22.44-14.09s-1.64-2.11-4.05-5.2l13.96-1.21,22.55-6.54,7-4.2,10.03-2.16-1.12,5.41,3.94-6.08,2.43-18.82c-.03,1.3-.55,22.17-.62,22.49-.08.31-10.87,7.9-10.87,7.9l18.61,16.72-22.05-15.54-20.91,9.44-10.61,10.4-4.16,17.01-7.52,5.74,4.89.48-13.89,6.58-1.08,3.91,4-1.39-5.13,4.8-11.24,10.88-13.95,4.68-16.59,3.89-14.61,13.15-1.46,7.38s-3.63.83-3.79.79c-.15-.04,2.52-1.97,2.52-1.97l.5-2.33-3.86-17.2-1.73.75.13-1.79-15.59-23.12-.78,13.71,7.51,12.34-7.85-5.74.29,4.96,5.52,5.41-5.26-1.78,1.11,23.95,4.33,1.02-4.1,2.1,2.33,6.38-3.87-3.07-7.33,1.36-3.58,4.59s.89,8.63,1.03,9.07c.14.46,3.13-4.1,3.13-4.1l-8.75,28.06,2.75,14.25,7.24-2.06s.11-8.98.09-9.24c0-.31,6.06-12.67,6.06-12.67l16.5-16.58-2.49-8.58,1.87,3.36,7.15-7.33,18.81-11.53,15.88-6.54-3.37-2.7,7.67,1.81,6.46-.92,4.26-4.25,27.14-10.4-8.79,5.1-1.12,3.33-9.87,18.29s-.06,11.59-.22,11.89c-.15.31,6.69-1.86,6.69-1.86l4.05-9.06,5.84-4.63,20.21-5.76,3.8-16.21-1.56,13.49,19.56-1.87,23.49,3.3,4.7-1.12-7.04-4.11,13.08,3.08,13.73,2.11,11.31-6.48,2.05-10.64-9.48-13.58-4.83-10.7s-19.81-15.11-20.35-15.68c-.53-.57,11.44,6.26,11.44,6.26l-1.65-5.31-5.47-6.5,25.92-12.83-5.65.34,19.2-9.28,12.01-5.19,3.84-5.43,3.22-1.91-3.18,6.92,20.97,16.82,20.84,6.02,5.78-7.1,1.81-7.71.25-17.18,3.25-5.8-15.27-9.81ZM187.75,208.59l-17.74-6.17-13.49,1.34-13.44,6.02-11.89.88,6.77-2.58,3.51-6.35,1.76-33.8,1.02,21.94,10.52,3.56,32.97,15.17Z"/>
      <g>
        <polygon points="366.26 50.08 474.23 50.08 474.23 69.92 388.71 69.92 388.71 116.23 469.27 116.23 469.27 136.07 388.71 136.07 388.71 187.1 474.23 187.1 474.23 206.95 366.26 206.95 366.26 50.08"/>
        <path d="M595.91,206.95h-19.37l-.71-15.83c-7.32,11.11-18.19,18.66-37.57,18.66-27.88,0-48.2-22.68-48.2-60.48s21.03-60.01,50.56-60.01c16.77,0,28.82,7.09,35.2,17.01v-56.23h20.08v156.87ZM576.77,149.3c0-30.01-14.88-42.52-33.31-42.52-21.03,0-32.13,15.83-32.13,42.52s10.87,43,32.13,43c17.72,0,33.31-12.99,33.31-43"/>
        <path d="M704.59,186.39c-7.32,11.11-17.24,18.67-36.62,18.67-27.88,0-48.19-21.26-48.19-58.12s21.03-57.65,50.56-57.65c16.78,0,27.88,7.09,34.26,17.01l.47-15.12h19.61v101.12c0,24.1-3.54,34.02-10.16,41.34-8.74,9.92-23.39,15.59-40.87,15.59-26.93,0-44.89-12.29-48.67-35.44l21.26-.71c2.83,10.63,9.21,18.66,27.64,18.66,10.63,0,18.9-3.07,24.1-8.74,4.25-4.72,6.61-10.16,6.61-26.22v-10.4ZM705.53,146.94c0-29.06-13.94-40.16-32.37-40.16-21.03,0-32.13,14.41-32.13,40.16s10.87,40.64,32.13,40.64c17.72,0,32.37-11.58,32.37-40.64"/>
        <path d="M704.59,186.39c-7.32,11.11-17.24,18.67-36.62,18.67-27.88,0-48.19-21.26-48.19-58.12s21.03-57.65,50.56-57.65c16.78,0,27.88,7.09,34.26,17.01l.47-15.12h19.61v101.12c0,24.1-3.54,34.02-10.16,41.34-8.74,9.92-23.39,15.59-40.87,15.59-26.93,0-44.89-12.29-48.67-35.44l21.26-.71c2.83,10.63,9.21,18.66,27.64,18.66,10.63,0,18.9-3.07,24.1-8.74,4.25-4.72,6.61-10.16,6.61-26.22v-10.4ZM705.53,146.94c0-29.06-13.94-40.16-32.37-40.16-21.03,0-32.13,14.41-32.13,40.16s10.87,40.64,32.13,40.64c17.72,0,32.37-11.58,32.37-40.64"/>
        <path d="M748.54,149.54c0-36.15,23.39-60.24,56.23-60.24,36.39,0,57.18,28.82,54.34,66.15h-89.3c0,22.68,14.65,36.62,34.26,36.62,18.43,0,27.64-7.8,32.6-20.32l20.55,2.6c-5.44,19.14-23.63,35.44-52.69,35.44-37.8,0-55.99-26.46-55.99-60.24M770.03,138.67h67.8c-.47-15.59-11.58-32.37-33.08-32.37-20.08,0-33.78,12.05-34.73,32.37"/>
        <path d="M884.86,50.07h54.34c28.59,0,53.63,7.8,53.63,39.69,0,17.01-8.74,29.29-20.55,34.73,18.9,5.43,27.17,18.43,27.17,37.33,0,32.84-24.34,45.12-55.29,45.12h-59.3V50.07ZM899.5,119.06h42.52c21.5,0,35.44-6.61,35.44-28.35,0-19.14-13.47-26.93-34.97-26.93h-43v55.28ZM899.5,193.25h45.6c25.75,0,38.75-10.63,38.75-31.19s-12.99-29.77-40.16-29.77h-44.18v60.95Z"/>
        <path d="M1069.85,89.29c27.41,0,53.39,18.43,53.39,60.24s-25.99,60.25-53.39,60.25-53.39-18.43-53.39-60.25,25.99-60.24,53.39-60.24M1069.85,197.73c21.74,0,38.98-15.59,38.98-48.2s-17.25-48.19-38.98-48.19-38.98,15.59-38.98,48.19,17.25,48.2,38.98,48.2"/>
        <path d="M1193.17,89.29c27.4,0,53.39,18.43,53.39,60.24s-25.99,60.25-53.39,60.25-53.39-18.43-53.39-60.25,25.99-60.24,53.39-60.24M1193.17,197.73c21.73,0,38.98-15.59,38.98-48.2s-17.25-48.19-38.98-48.19-38.98,15.59-38.98,48.19,17.25,48.2,38.98,48.2"/>
        <polygon points="1284.13 50.08 1284.13 147.88 1338 91.18 1354.78 91.18 1310.12 138.2 1358.79 206.95 1342.96 206.95 1301.14 147.65 1284.13 165.6 1284.13 206.95 1270.43 206.95 1270.43 50.08 1284.13 50.08"/>
        <rect x="1374.85" y="193.31" width="13.63" height="13.64"/>
      </g>
    </g>
  </g>
</svg>